<svg xmlns="http://www.w3.org/2000/svg" width="125" height="125" viewBox="0 0 125 125"><rect x="0.16" width="124.69" height="124.69" style="fill:#f9f1de"/><path d="M0,55.08q11.25-6.6,22.5-13.21L36.6,33.56c.58.28.41.69.41,1q0,30.34,0,60.7c0,.24,0,.48-.05.72l-.39-.1C31.16,91.84,25,89,19.3,85.37c-5.1-3.24-10.37-6.19-15.61-9.2C2.53,75.51,1.54,74.4,0,74.43Z" style="fill:#046267"/><path d="M0,74.43c1.5,0,2.49,1.08,3.65,1.74,5.24,3,10.51,6,15.61,9.2C25,89,31.16,91.84,36.59,95.89l-.24.42-.11.35h0a2.51,2.51,0,0,0-1.12.44c-4.53,2.74-9,5.53-13.65,8.11-6.3,3.52-12.37,7.41-18.6,11.05-.88.51-1.62,1.43-2.83,1.18Z" style="fill:#047772"/><path d="M37.76,96.54c4.77,2.44,9.26,5.38,13.88,8.08,10.74,6.3,21.44,12.67,32.15,19,.66.39,1.26.88,1.88,1.32H37.3q0-13.21,0-26.42C37.31,97.85,37.08,97.09,37.76,96.54Z" style="fill:#f15b2c"/><path d="M0,117.44c1.21.25,2-.67,2.83-1.18,6.23-3.64,12.3-7.53,18.6-11.05,4.62-2.58,9.12-5.37,13.65-8.11a2.51,2.51,0,0,1,1.12-.44,8.29,8.29,0,0,1,.37,2.27q0,13,0,26c-11.72,0-24.87,0-36.59.05,0-.81,0-1.51,0-1.51S0,119.46,0,117.44Z" style="fill:#982167"/><path d="M36.59,125q0-13,0-26a8.29,8.29,0,0,0-.37-2.27h0s.14,0,.14-.07a1.27,1.27,0,0,0,0-.28l.24-.42L37,96l0,.12q0,14.43-.08,28.85Z" style="fill:#ba2231"/><path d="M36.94,125q0-14.43.08-28.85l.74.43c-.68.55-.45,1.31-.45,2q0,13.21,0,26.42Z" style="fill:#b74951"/><path d="M114,50.72c-.36.14-.67.31-.71.75-4.5,2.51-9,4.94-13.49,7.54-2.21,1.29-4.59,2.31-6.58,4a2.84,2.84,0,0,0-2.77,1.76,37.59,37.59,0,0,1-5.6-3.07C80.75,59.28,76.63,57,72.5,54.74c-2.13-1.16-4-2.82-6.46-3.36a.18.18,0,0,0,0-.2L66,50.74c0-3.64,0-7.28,0-10.93L66,25.36l1.74-1c3.95,2.32,7.84,4.73,11.86,6.91,3.45,1.86,6.71,4.08,10.35,5.58a9.16,9.16,0,0,0,1.68-.54c4-2.31,7.93-4.71,12-7,3-1.69,5.83-3.78,9.29-4.57l.34.24a5.3,5.3,0,0,1,.75,3C114,35.57,114,43.14,114,50.72Z" style="fill:#0b9991"/><path d="M114.37,78.42a1.77,1.77,0,0,0,0,.23,3.79,3.79,0,0,0-.39,2.07q0,11.55,0,23.1a2.2,2.2,0,0,1-1.42.81,4.74,4.74,0,0,1-1.88-.5c-2.84-1.71-5.63-3.51-8.55-5.08-3.7-2-7.15-4.43-11.07-6-.17-.86-.87-.63-1.43-.67a1.66,1.66,0,0,0,0-.32,9.15,9.15,0,0,0,1.67-.58c4.7-2.69,9.33-5.47,14.06-8.1C108.34,81.69,111.14,79.66,114.37,78.42Z" style="fill:#f49223"/><path d="M89.61,92a1.66,1.66,0,0,1,0,.32c-5,2.81-10,5.52-14.93,8.47-2.23,1.35-4.74,2.25-6.64,4.13a3.83,3.83,0,0,1-2.15-1.11q0-12.56.07-25.12c2.4.61,4.27,2.2,6.36,3.38l17.3,9.83Z" style="fill:#d8432b"/><path d="M112.9,24.74c-3.46.79-6.28,2.88-9.29,4.57-4,2.25-8,4.65-12,7a9.16,9.16,0,0,1-1.68.54c0-6.48,0-13,0-19.44,0-.94.46-2.11,0-2.77-.54-.87-1.86-.18-2.82-.42a2.32,2.32,0,0,1-.44-.28.18.18,0,0,1,.26-.05,1.24,1.24,0,0,0,1.14-.25,13,13,0,0,1,8.72,1.78C102.2,18.55,107.56,21.62,112.9,24.74Z" style="fill:#046267"/><path d="M68.07,105c1.9-1.88,4.41-2.78,6.64-4.13,4.9-2.95,9.94-5.66,14.93-8.47.56,0,1.26-.19,1.43.67-1.09,0-1.73.29-1.27,1.59A5.32,5.32,0,0,1,90,96.36c0,5.46,0,10.91,0,16.37,0,1-.55,2,0,2.94a12.91,12.91,0,0,1-7.13-1.91c-4.71-2.63-9.36-5.37-14-8.08A4.36,4.36,0,0,1,68.07,105Z" style="fill:#f6ad43"/><path d="M90,115.67c-.53-1,0-2,0-2.94-.06-5.46,0-10.91,0-16.37a5.32,5.32,0,0,0-.17-1.75c-.46-1.3.18-1.6,1.27-1.59,3.92,1.6,7.37,4,11.07,6,2.92,1.57,5.71,3.37,8.55,5.08a4.74,4.74,0,0,0,1.88.5c-4.7,3.13-9.8,5.58-14.57,8.58A14.58,14.58,0,0,1,90,115.67Z" style="fill:#f4cc36"/><path d="M66,25.36,66,39.81c0,3.65,0,7.29,0,10.93-5.73-3.22-11.47-6.42-17.17-9.7-1-.59-2.56-.58-3-2.09A7.66,7.66,0,0,1,49,35.19C54.57,31.79,60.22,28.43,66,25.36Z" style="fill:#047772"/><path d="M66,78.72q0,12.56-.07,25.12c-5.7-3-11.2-6.25-16.67-9.61a8.33,8.33,0,0,1-3.64-4.29l7.25-4.13c4.28-2.44,8.64-4.72,12.76-7.43H66A1.39,1.39,0,0,0,66,78.72Z" style="fill:#e8862a"/><path d="M86.77,13.9a2.32,2.32,0,0,0,.44.28c1,.24,2.28-.45,2.82.42.41.66,0,1.83,0,2.77,0,6.48,0,13,0,19.44-3.64-1.5-6.9-3.72-10.35-5.58-4-2.18-7.91-4.59-11.86-6.91q8.49-4.92,17-9.83A3.4,3.4,0,0,1,86.77,13.9Z" style="fill:#047772"/><path d="M65.62,78.38c-4.12,2.71-8.48,5-12.76,7.43l-7.25,4.13a8.12,8.12,0,0,1-1.52-4c.24-6.53-.33-13.09.36-19.62a2,2,0,0,1,.67.13c3.9,2.22,7.8,4.43,11.66,6.7C59.74,74.87,62.84,76.35,65.62,78.38Z" style="fill:#ba2231"/><path d="M45.8,39c.42,1.51,1.94,1.5,3,2.09,5.7,3.28,11.44,6.48,17.17,9.7l.06.44a10.93,10.93,0,0,0-3.3,1.67c-5.58,3.22-11.2,6.38-16.79,9.6a2.09,2.09,0,0,1-1.46.47c0-6,0-12,0-18.05,0-1.61,1.24-3,.68-4.64A2.29,2.29,0,0,1,45.8,39Z" style="fill:#982167"/><path d="M45.1,40.23c.56,1.66-.7,3-.68,4.64.08,6,0,12,0,18.05a4,4,0,0,0,0,3.38c-.69,6.53-.12,13.09-.36,19.62a3.74,3.74,0,0,1-.28-2.09q0-19.24,0-38.48A9.33,9.33,0,0,1,45.1,40.23Z" style="fill:#b74951"/><path d="M88.17,13.6a1.24,1.24,0,0,1-1.14.25A1.37,1.37,0,0,1,88.17,13.6Z" style="fill:#047772"/><path d="M36.35,96.31a1.27,1.27,0,0,1,0,.28s-.09,0-.14.07Z" style="fill:#982167"/><path d="M114.37,78.42c-3.23,1.24-6,3.27-9,4.93C100.61,86,96,88.76,91.28,91.45a9.15,9.15,0,0,1-1.67.58l0-.1A4.17,4.17,0,0,0,90,89.67c.13-7.74-.25-15.48.21-23.21,0-.53-.08-1-.55-1.2s-1.7-.37-1.83.07c-.52,1.92-2.3,1.79-3.55,2.51q-8.55,4.93-17.09,9.88A2.32,2.32,0,0,1,66,78Q66,64.7,66,51.38c2.45.54,4.33,2.2,6.46,3.36,4.13,2.25,8.25,4.54,12.31,6.93a37.59,37.59,0,0,0,5.6,3.07h.3c0,.38.09.76.45.91,2.94,1.17,5.45,3.13,8.29,4.47,1.5.71,2.79,1.94,4.22,2.7,3,1.61,6.19,2.88,8.93,5A2,2,0,0,0,114,78h.69Z" style="fill:#972822"/><path d="M114,78a2,2,0,0,1-1.38-.2c-2.74-2.1-5.93-3.37-8.93-5-1.43-.76-2.72-2-4.22-2.7-2.84-1.34-5.35-3.3-8.29-4.47-.36-.15-.44-.53-.45-.91.85-.56,2.24-.35,2.47-1.76,2-1.66,4.37-2.68,6.58-4,4.45-2.6,9-5,13.49-7.54l.67.07Z" style="fill:#ba2231"/><path d="M66,51.38Q66,64.7,66,78a2,2,0,0,0,0,.35h-.33c-2.78-2-5.88-3.51-8.84-5.25-3.86-2.27-7.76-4.48-11.66-6.7a2,2,0,0,0-.67-.13,4,4,0,0,1,0-3.38,2.09,2.09,0,0,0,1.46-.47c5.59-3.22,11.21-6.38,16.79-9.6A10.93,10.93,0,0,1,66,51.18.18.18,0,0,1,66,51.38Z" style="fill:#661013"/><path d="M93.18,63c-.23,1.41-1.62,1.2-2.47,1.76h-.3A2.84,2.84,0,0,1,93.18,63Z" style="fill:#b74951"/><path d="M66,78.37A2,2,0,0,1,66,78a2.32,2.32,0,0,0,1.19-.3q8.53-4.95,17.09-9.88c1.25-.72,3-.59,3.55-2.51.13-.44,1.22-.31,1.83-.07s.58.67.55,1.2c-.46,7.73-.08,15.47-.21,23.21a4.17,4.17,0,0,1-.32,2.26L72.35,82.1c-2.09-1.18-4-2.77-6.36-3.38A1.39,1.39,0,0,1,66,78.37Z" style="fill:#b02d25"/><path d="M124.78,106.9c-6.46,3.82-12.94,7.59-19.35,11.49-3.6,2.19-7.4,4-10.8,6.57,9.91,0,19.83,0,29.74,0a2.15,2.15,0,0,0,.63-.07v-18.1A1.45,1.45,0,0,0,124.78,106.9Z" style="fill:#0b9991"/><path d="M125,57.05c-3-1.25-5.71-3.21-8.61-4.74a4.62,4.62,0,0,1-.56-.38c-.54-.41-1.09-.85-1.91-.39L114,78h.69q5.17-2.91,10.33-5.84Z" style="fill:#661013"/><path d="M114.36,78.65h0a3.79,3.79,0,0,0-.39,2.07q0,11.55,0,23.1l11-6.2v-13Z" style="fill:#f6ad43"/><path d="M125,44.57v-13c-.38-.19-.76-.37-1.13-.58l-10.63-6a5.3,5.3,0,0,1,.75,3c0,7.58,0,15.15,0,22.73,1.39,0,2.33-1.16,3.38-1.77C119.89,47.48,122.4,46,125,44.57Z" style="fill:#047772"/><path d="M125,57.05V44.57c-2.6,1.38-5.11,2.91-7.66,4.38-1,.61-2,1.72-3.38,1.77-.36.14-.67.31-.71.75l.67.07c.82-.46,1.37,0,1.91.39a4.62,4.62,0,0,0,.56.38C119.29,53.84,122,55.8,125,57.05Z" style="fill:#982167"/><path d="M125,84.58V72.17Q119.84,75.1,114.67,78h0l-.3.41a1.77,1.77,0,0,0,0,.23h0Z" style="fill:#f15b2c"/><path d="M90.3,0,90,.2c.23.56.66.67,1,.88,5.59,3.32,11.17,6.66,16.78,10S119.25,17.76,125,21.12V0Z" style="fill:#ba2231"/></svg>