<?xml version="1.0" encoding="utf-8"?>
<!-- Generator: Adobe Illustrator 24.3.0, SVG Export Plug-In . SVG Version: 6.00 Build 0)  -->
<svg version="1.1" id="Layer_1" xmlns="http://www.w3.org/2000/svg" xmlns:xlink="http://www.w3.org/1999/xlink" x="0px" y="0px"
	 width="125px" height="125px" viewBox="0 0 125 125" style="enable-background:new 0 0 125 125;" xml:space="preserve">
<style type="text/css">
	.st0{fill:#FAF2E1;}
	.st1{fill:#026166;}
	.st2{fill:#007771;}
	.st3{fill:#F15A2C;}
	.st4{fill:#982166;}
	.st5{fill:#BA2131;}
	.st6{fill:#B64A51;}
	.st7{fill:#00A69C;}
	.st8{fill:#F29023;}
	.st9{fill:#D7422A;}
	.st10{fill:#F5AC41;}
	.st11{fill:#F3CB34;}
	.st12{fill:#E68529;}
	.st13{fill:#972823;}
	.st14{fill:#661014;}
	.st15{fill:#B02B25;}
	.st16{fill:#069891;}
	.st17{fill:#028A82;}
	.st18{fill:#029891;}
</style>
<rect x="0.3" y="0.2" class="st0" width="124.7" height="124.7"/>
<g>
	<path class="st1" d="M0.2,55.2c7.5-4.4,15-8.8,22.5-13.2c4.7-2.8,9.4-5.6,14.1-8.3c0.6,0.3,0.4,0.7,0.4,1c0,20.2,0,40.5,0,60.7
		c0,0.2,0,0.5,0,0.7c-0.1,0-0.3-0.1-0.4-0.1c-5.4-4.1-11.6-6.9-17.3-10.5c-5.2-3.2-10.4-6.2-15.7-9.2c-1.1-0.6-2.1-1.7-3.6-1.7
		C0.2,68.1,0.2,61.7,0.2,55.2z"/>
	<path class="st2" d="M0.2,74.6c1.5,0,2.5,1.1,3.7,1.7c5.2,3,10.5,6,15.6,9.2C25.2,89.1,31.4,92,36.8,96c-0.1,0.1-0.2,0.3-0.2,0.4
		s-0.1,0.2-0.1,0.4l0,0c-0.4,0-0.7,0.2-1.1,0.4c-4.5,2.7-9,5.5-13.7,8.1c-6.3,3.5-12.4,7.4-18.6,11c-0.9,0.5-1.6,1.4-2.8,1.2
		C0.2,103.3,0.2,88.9,0.2,74.6z"/>
	<path class="st3" d="M37.9,96.7c4.8,2.4,9.3,5.4,13.9,8.1c10.7,6.3,21.4,12.7,32.2,19c0.7,0.4,1.3,0.9,1.9,1.3
		c-16.1,0-32.2,0-48.4,0c0-8.8,0-17.6,0-26.4C37.4,98,37.2,97.2,37.9,96.7z"/>
	<path class="st4" d="M0.2,117.6c1.2,0.3,2-0.7,2.8-1.2c6.2-3.6,12.3-7.5,18.6-11c4.6-2.6,9.1-5.4,13.7-8.1c0.4-0.2,0.7-0.4,1.1-0.4
		c0.2,0.7,0.4,1.5,0.4,2.3c0,8.7,0,17.4,0,26c-11.7,0-24.9,0-36.6,0c0-0.8,0-1.5,0-1.5S0.2,119.6,0.2,117.6z"/>
	<path class="st5" d="M36.7,125.1c0-8.7,0-17.4,0-26c0-0.8-0.2-1.5-0.4-2.3l0,0c0,0,0.1,0,0.1-0.1s0-0.2,0-0.3
		c0.1-0.1,0.2-0.3,0.2-0.4c0.1,0,0.3,0.1,0.4,0.1v0.1c0,9.6-0.1,19.2-0.1,28.8C36.9,125.1,36.8,125.1,36.7,125.1z"/>
	<path class="st6" d="M37.1,125.1c0-9.6,0.1-19.2,0.1-28.8c0.2,0.1,0.5,0.3,0.7,0.4c-0.7,0.5-0.5,1.3-0.5,2c0,8.8,0,17.6,0,26.4
		C37.3,125.1,37.2,125.1,37.1,125.1z"/>
	<path class="st7" d="M114.1,50.9c-0.4,0.1-0.7,0.3-0.7,0.8c-4.5,2.5-9,4.9-13.5,7.5c-2.2,1.3-4.6,2.3-6.6,4
		c-1.2,0.1-2.3,0.5-2.8,1.8c-2-0.8-3.8-2-5.6-3.1c-4.1-2.4-8.2-4.7-12.3-6.9c-2.1-1.2-4-2.8-6.5-3.4c0-0.1,0-0.1,0-0.2
		c0-0.1,0-0.3-0.1-0.4c0-3.6,0-7.3,0-10.9c0-4.8,0-9.6,0.1-14.5c0.6-0.3,1.2-0.7,1.7-1c3.9,2.3,7.8,4.7,11.9,6.9
		c3.4,1.9,6.7,4.1,10.3,5.6c0.6-0.2,1.2-0.3,1.7-0.5c4-2.3,7.9-4.7,12-7c3-1.7,5.8-3.8,9.3-4.6c0.1,0.1,0.2,0.2,0.3,0.2
		c0.6,0.9,0.8,1.9,0.8,3C114.1,35.7,114.1,43.3,114.1,50.9z"/>
	<path class="st8" d="M114.5,78.6c0,0.1,0,0.1,0,0.2c-0.4,0.6-0.4,1.4-0.4,2.1c0,7.7,0,15.4,0,23.1c-0.4,0.5-0.8,0.7-1.4,0.8
		c-0.6-0.1-1.3-0.1-1.9-0.5c-2.8-1.7-5.6-3.5-8.6-5.1c-3.7-2-7.2-4.4-11.1-6c-0.2-0.9-0.9-0.6-1.4-0.7c0-0.1,0-0.2,0-0.3
		c0.6-0.2,1.2-0.3,1.7-0.6c4.7-2.7,9.3-5.5,14.1-8.1C108.5,81.8,111.3,79.8,114.5,78.6z"/>
	<path class="st9" d="M89.7,92.2c0,0.1,0,0.2,0,0.3c-5,2.8-10,5.5-14.9,8.5c-2.2,1.3-4.7,2.2-6.6,4.1c-0.9-0.1-1.5-0.6-2.1-1.1
		c0-8.4,0-16.7,0.1-25.1c2.4,0.6,4.3,2.2,6.4,3.4C78.2,85.5,84,88.8,89.7,92.2L89.7,92.2z"/>
	<path class="st1" d="M96.8,15.2c-2.2-1.3-4.4-2-6.8-1.9c0,0.4,0,0.9,0,1.3c0.3,0.7-0.1,1.8-0.1,2.7c0,6.7,0,13.3,0,20
		c0.6-0.2,1.2-0.3,1.7-0.6c4-2.4,8.5-4.2,12.2-6.8c2.9-1.9,6.5-3,9.2-5.1C107.5,21.6,102.1,18.5,96.8,15.2z"/>
	<path class="st10" d="M68.2,105.1c1.9-1.9,4.4-2.8,6.6-4.1c4.9-3,9.9-5.7,14.9-8.5c0.6,0,1.3-0.2,1.4,0.7c-1.1,0-1.7,0.3-1.3,1.6
		C90,95.3,90,96,90,96.6c0,5.5,0,10.9,0,16.4c0,1-0.6,2,0,2.9c-2.6,0.1-4.9-0.7-7.1-1.9c-4.7-2.6-9.4-5.4-14-8.1
		C68.7,105.7,68.4,105.3,68.2,105.1z"/>
	<path class="st11" d="M90.1,115.8c-0.5-1,0-2,0-2.9c-0.1-5.5,0-10.9,0-16.4c0-0.6,0-1.2-0.2-1.8c-0.5-1.3,0.2-1.6,1.3-1.6
		c3.9,1.6,7.4,4,11.1,6c2.9,1.6,5.7,3.4,8.6,5.1c0.6,0.4,1.2,0.4,1.9,0.5c-4.7,3.1-9.8,5.6-14.6,8.6C95.6,114.9,93,115.8,90.1,115.8
		z"/>
	<path class="st2" d="M66.1,25.5c0,4.8,0,9.6-0.1,14.5c0,3.6,0,7.3,0,10.9c-5.7-3.2-11.5-6.4-17.2-9.7c-1-0.6-2.6-0.6-3-2.1
		c0.6-1.6,1.8-2.9,3.2-3.8C54.7,31.9,60.3,28.6,66.1,25.5z"/>
	<path class="st12" d="M66.1,78.9c0,8.4,0,16.7-0.1,25.1c-5.7-3-11.2-6.3-16.7-9.6c-1.6-1-3-2.4-3.6-4.3c2.4-1.4,4.8-2.7,7.3-4.1
		c4.3-2.4,8.6-4.7,12.8-7.4c0.1,0,0.2,0,0.3,0C66.1,78.6,66.1,78.8,66.1,78.9z"/>
	<path class="st2" d="M90.1,13.5c-0.1,1,0,3.2,0,4.1c0,6.5,0,13,0,19.4c-3.6-1.5-6.9-3.7-10.3-5.6c-4-2.2-7.9-4.6-11.9-6.9
		c5.7-3.3,11.3-6.6,17-9.8C85.4,14.4,90.2,12.5,90.1,13.5z"/>
	<path class="st6" d="M45.2,40.4c0.6,1.7-0.7,3-0.7,4.6c0.1,6,0,12,0,18.1c-0.5,1.1-0.5,2.3,0,3.4c-0.7,6.5-0.1,13.1-0.4,19.6
		c-0.4-0.7-0.3-1.4-0.3-2.1c0-12.8,0-25.7,0-38.5C43.9,43.7,44.2,41.9,45.2,40.4z"/>
	<path class="st2" d="M88.3,13.8c-0.3,0.3-0.7,0.3-1.1,0.2C87.5,13.7,87.9,13.7,88.3,13.8z"/>
	<path class="st4" d="M36.5,96.5c0,0.1,0,0.2,0,0.3c0,0-0.1,0-0.1,0.1C36.4,96.7,36.4,96.6,36.5,96.5z"/>
	<path class="st13" d="M114.5,78.6c-3.2,1.2-6,3.3-9,4.9c-4.7,2.6-9.4,5.4-14.1,8.1c-0.5,0.3-1.1,0.4-1.7,0.6v-0.1
		c0.4-0.7,0.3-1.5,0.3-2.3c0.1-7.7-0.3-15.5,0.2-23.2c0-0.5-0.1-1-0.6-1.2c-0.6-0.2-1.7-0.4-1.8,0.1c-0.5,1.9-2.3,1.8-3.6,2.5
		c-5.7,3.3-11.4,6.6-17.1,9.9c-0.4,0.2-0.8,0.3-1.2,0.3c0-8.9,0-17.8,0.1-26.6c2.5,0.5,4.3,2.2,6.5,3.4c4.1,2.3,8.3,4.5,12.3,6.9
		c1.8,1.1,3.6,2.3,5.6,3.1h0.2h0.2c0,0.4,0.1,0.8,0.4,0.9c2.9,1.2,5.4,3.1,8.3,4.5c1.5,0.7,2.8,1.9,4.2,2.7c3,1.6,6.2,2.9,8.9,5
		c0.4,0.3,0.9,0.2,1.4,0.2c0.2,0,0.5,0,0.7,0C114.7,78.3,114.6,78.4,114.5,78.6z"/>
	<path class="st5" d="M114.1,78.2c-0.5,0-1,0.1-1.4-0.2c-2.7-2.1-5.9-3.4-8.9-5c-1.4-0.8-2.7-2-4.2-2.7c-2.8-1.3-5.4-3.3-8.3-4.5
		c-0.4-0.1-0.4-0.5-0.5-0.9c0.8-0.6,2.2-0.3,2.5-1.8c2-1.7,4.4-2.7,6.6-4c4.4-2.6,9-5,13.5-7.5c0.2,0,0.4,0,0.7,0.1
		C114.1,60.5,114.1,69.3,114.1,78.2z"/>
	<path class="st14" d="M66.2,51.5c0,8.9,0,17.8-0.1,26.6c0,0.1,0,0.2,0,0.4c-0.1,0-0.2,0-0.3,0c-2.8-2-5.9-3.5-8.8-5.2
		c-3.9-2.3-7.8-4.5-11.7-6.7c-0.2-0.1-1.1-0.5-1.3-0.5c-0.5-1.1,0.1-1.9,0.7-3c0.6,0.1,1-0.2,1.5-0.5c5.6-3.2,11.2-6.4,16.8-9.6
		c1.1-0.6,2-1.4,3.3-1.7C66.2,51.4,66.2,51.5,66.2,51.5z"/>
	<path class="st6" d="M93.3,63.1c-0.2,1.4-1.6,1.2-2.5,1.8h-0.2h-0.2C91,63.6,92.1,63.2,93.3,63.1z"/>
	<path class="st15" d="M66.1,78.5c0-0.1,0-0.2,0-0.4c0.4,0,0.8-0.1,1.2-0.3c5.7-3.3,11.4-6.6,17.1-9.9c1.3-0.7,3-0.6,3.6-2.5
		c0.1-0.4,1.2-0.3,1.8-0.1c0.5,0.2,0.6,0.7,0.6,1.2c-0.5,7.7-0.1,15.5-0.2,23.2c0,0.8,0.1,1.6-0.3,2.3c-5.8-3.3-11.5-6.6-17.3-9.8
		c-2.1-1.2-4-2.8-6.4-3.4C66.1,78.8,66.1,78.6,66.1,78.5z"/>
</g>
<g>
	<path class="st16" d="M124.9,107.1c-6.5,3.8-12.9,7.6-19.4,11.5c-3.6,2.2-7.4,4.1-10.8,6.6c9.9,0,19.8,0,29.7,0
		c0.3,0,0.5,0,0.6-0.1L124.9,107.1C125,107,125,107,124.9,107.1z"/>
	<path class="st14" d="M125.1,57.2c-3-1.3-5.7-3.2-8.6-4.7c-0.2-0.1-0.4-0.2-0.6-0.4c-0.5-0.4-1.1-0.9-1.9-0.4
		c0,8.8,0,17.6,0.1,26.5c0.2,0,0.5,0,0.7,0c3.4-1.9,6.9-3.9,10.3-5.8V57.2z"/>
	<path class="st10" d="M114.5,78.8L114.5,78.8c-0.4,0.6-0.4,1.4-0.4,2.1c0,7.7,0,15.4,0,23.1c3.7-2.1,7.3-4.1,11-6.2v-13
		C121.6,82.8,118,80.8,114.5,78.8z"/>
	<path class="st2" d="M125.1,44.7v-13c-0.4-0.2-0.8-0.4-1.1-0.6c-3.5-2-7.1-4-10.6-6c0.6,0.9,0.8,1.9,0.8,3c0,7.6,0,15.2,0,22.7
		c1.4-0.1,2.3-1.2,3.4-1.8C120,47.6,122.5,46.1,125.1,44.7z"/>
	<path class="st4" d="M125.1,57.2V44.7c-2.6,1.4-5.1,2.9-7.7,4.4c-1.1,0.6-2,1.7-3.4,1.8c-0.4,0.1-0.7,0.3-0.7,0.8
		c0.2,0,0.4,0,0.7,0.1c0.8-0.5,1.4,0,1.9,0.4c0.2,0.1,0.4,0.3,0.6,0.4C119.4,54,122.1,55.9,125.1,57.2z"/>
	<path class="st3" d="M125.1,84.7V72.3c-3.4,1.9-6.9,3.9-10.3,5.8l0,0c-0.1,0.1-0.2,0.3-0.3,0.4c0,0.1,0,0.1,0,0.2l0,0
		C118,80.8,121.6,82.8,125.1,84.7z"/>
	<path class="st5" d="M90.4,0.2c-0.1,0.1-0.2,0.1-0.3,0.2c0.2,0.6,0.7,0.7,1,0.9c5.6,3.3,11.2,6.7,16.8,10
		c5.7,3.4,11.5,6.7,17.2,10.1V0.2H90.4z"/>
</g>
<polygon class="st17" points="90.3,37.3 112.6,24.6 114.2,25.6 114,51.5 "/>
<polygon class="st18" points="66.1,51.2 66.1,25.5 67.9,24.5 90.3,37.3 "/>
<polygon class="st18" points="90.8,64.5 90.3,37.3 90.7,37.3 113.7,51.3 "/>
<path class="st4" d="M45.9,39.1c0.4,1.5,1.9,1.5,3,2.1c5.7,3.3,11.4,6.5,17.2,9.7c0,0.2,0,0.2-0.1,0.5c-1.2,0.2-2.1,1-3.2,1.6
	c-5.6,3.2-11.2,6.4-16.8,9.6c-0.5,0.3-1.6,1.5-2.1,1.4c0-6-0.5-13.2-0.4-19c0.1-2.1,0-0.8,0.7-3.3C44.3,41.2,45.4,39.5,45.9,39.1z"
	/>
<path class="st5" d="M65.7,78.5c-4.1,2.7-8.5,5-12.8,7.4c-2.4,1.4-4.8,2.8-7.3,4.1c-0.9-1.2-1.7-2.5-1.8-4c0.2-6.5-0.2-14.2,0-20
	c0.2,0,1.1,0.4,1.3,0.5c3.9,2.2,7.8,4.4,11.7,6.7C59.9,75,63,76.5,65.7,78.5z"/>
</svg>
